<?xml version="1.0" encoding="UTF-8"?>
<svg width="300px" height="90px" xmlns="http://www.w3.org/2000/svg" xmlns:xlink="http://www.w3.org/1999/xlink" version="1.1" id="Layer_1" x="0px" y="0px" viewBox="0 0 1366 412" style="enable-background:new 0 0 1366 412;" xml:space="preserve">
<g fill="white">
	<polygon points="497.49,80.1 450.81,80.1 450.81,7.13 432.77,7.13 432.77,170.02 450.81,170.02 450.81,97.31 497.49,97.31    497.49,170.02 515.53,170.02 515.53,7.13 497.49,7.13  "></polygon>
	<path d="M672.35,14.59c-12.83-7.63-27.05-11.5-42.3-11.5c-15.13,0-29.37,3.9-42.31,11.6c-12.91,7.68-23.3,18.14-30.9,31.11   c-7.62,13.01-11.48,27.19-11.48,42.17c0,15.08,3.83,29.39,11.37,42.53c7.53,13.11,17.87,23.75,30.75,31.62   c12.97,7.93,27.22,11.95,42.36,11.95c15.24,0,29.51-3.91,42.43-11.61c12.83-7.67,23.17-18.22,30.7-31.35   c7.54-13.15,11.36-27.65,11.36-43.13c0-15.1-3.83-29.35-11.37-42.35C695.43,32.64,685.13,22.2,672.35,14.59z M687.25,122.62   c-6.01,10.47-14.21,18.9-24.37,25.04c-10.09,6.1-21.21,9.19-33.04,9.19c-11.82,0-22.93-3.1-33.02-9.19   c-10.15-6.13-18.36-14.55-24.39-25.04c-5.99-10.45-9.03-21.97-9.03-34.25c0-12.14,3.04-23.56,9.03-33.93   c6.02-10.42,14.22-18.82,24.39-24.96c10.1-6.1,21.28-9.19,33.23-9.19c11.82,0,22.92,3.09,33.02,9.19   c10.16,6.13,18.33,14.52,24.28,24.93c5.94,10.4,8.95,21.82,8.95,33.95C696.3,100.62,693.26,112.15,687.25,122.62z"></path>
	<polygon points="744.23,170.02 762.27,170.02 762.27,24.34 787.79,24.34 787.79,7.12 718.29,7.12 718.29,24.34 744.23,24.34  "></polygon>
	<polygon points="860.04,152.8 830.41,152.8 830.41,97.33 854.4,97.33 854.4,80.12 830.41,80.12 830.41,24.34 860.04,24.34    860.04,7.13 812.37,7.13 812.37,170.02 860.04,170.02  "></polygon>
	<polygon points="933.31,152.8 903.67,152.8 903.67,7.13 885.63,7.13 885.63,170.02 933.31,170.02  "></polygon>
	<path d="M711.67,324.07h-0.04c0,0,0,0-0.01,0h-71.15v17.23h51.87c-1.51,5.65-3.75,11.08-6.71,16.25   c-6.01,10.48-15.24,18.9-25.4,25.04c-10.09,6.1-21.21,9.2-33.04,9.2c-11.82,0-22.93-3.1-33.02-9.2   c-10.15-6.13-18.36-14.54-24.38-25.04c-6-10.44-9.04-21.96-9.04-34.25c0-12.14,3.04-23.56,9.03-33.93   c6.02-10.42,14.23-18.82,24.39-24.96c10.1-6.1,21.28-9.19,33.23-9.19c10.13,0,20.17,2.09,29.15,6.54l11.94-12.74   c-12.69-7.43-26.05-11.02-41.09-11.02c-15.13,0-29.37,3.9-42.31,11.6c-12.91,7.68-23.3,18.15-30.9,31.11   c-7.62,13.01-11.48,27.19-11.48,42.17c0,15.08,3.83,29.39,11.37,42.53c7.53,13.11,17.87,23.75,30.75,31.62   c12.97,7.93,27.22,11.95,42.36,11.95c15.25,0,29.51-3.91,42.43-11.61c12.83-7.67,23.17-18.22,30.7-31.35   c6.43-11.22,10.15-23.42,11.11-36.37C711.59,327.43,711.68,326.35,711.67,324.07C711.68,324.07,711.67,324.07,711.67,324.07   L711.67,324.07z"></path>
	<path d="M822.54,403.01l-0.96,1.95h19.71l30.92-63.67h67.68l31.13,62.91l0.38,0.76h19.69l-84.86-173.83L822.54,403.01z    M880.54,324.07l25.36-52.49l25.95,52.49L880.54,324.07z"></path>
	<polygon points="1102.39,353.41 1014.49,232.67 1014.49,404.86 1031.72,404.86 1031.72,285.95 1119.6,407.2 1119.75,241.97    1102.53,241.97  "></polygon>
	<path d="M1210.12,242.06h-54.06v162.9h54.06c14.83,0,28.62-3.67,40.96-10.88c12.31-7.2,22.21-17.14,29.41-29.53   c7.21-12.4,10.87-26.21,10.87-41.05c0-25.7-7.19-45.92-21.35-60.08C1255.83,249.24,1235.68,242.06,1210.12,242.06z M1265.07,355.88   c-5.48,9.73-12.99,17.49-22.3,23.07c-10.05,6.01-20.49,9.05-31.04,9.05h-37.84V258.99h37.84c19.54,0,34.92,5.67,45.72,16.84   c10.55,10.92,15.89,26.96,15.89,47.67C1273.34,335.25,1270.56,346.14,1265.07,355.88z"></path>
	<path d="M778.2,342.85c8.11-4.72,14.61-11.29,19.33-19.55c4.72-8.24,7.12-17.41,7.12-27.27c0-16.99-4.9-30.4-14.54-39.83   c-9.63-9.38-23.23-14.13-40.43-14.13h-15.64v162.9h17.83v-53.83l-0.02-1.14c2.48-0.02,4.98-0.22,7.49-0.59l31.36,54.87l0.39,0.69   h20.22l-35.31-60.9C776.72,343.69,777.47,343.28,778.2,342.85z M751.85,332.78V259.3c11.1,0.31,19.71,3.46,25.6,9.4   c6.21,6.28,9.36,15.54,9.36,27.53c0,6.79-1.58,13.02-4.71,18.51c-3.12,5.5-7.46,9.93-12.92,13.18   C763.97,331.02,758.14,332.65,751.85,332.78z"></path>
	<polygon points="109.64,404.96 157.3,404.96 157.3,387.73 127.68,387.73 127.68,332.27 151.67,332.27 151.67,315.05 127.68,315.05    127.68,259.28 157.3,259.28 157.3,242.06 109.64,242.06  "></polygon>
	<path d="M315.46,403.01l-0.96,1.95h19.71l30.94-63.67h67.66l31.14,62.91l0.37,0.76h19.7l-84.87-173.83L315.46,403.01z    M373.46,324.07l25.36-52.49l25.95,52.49L373.46,324.07z"></path>
	<polygon points="273.18,242.06 255.15,242.06 255.15,404.95 302.82,404.95 302.82,387.73 273.18,387.73  "></polygon>
	<polygon points="200.93,242.06 182.9,242.06 182.9,404.95 230.57,404.95 230.57,387.73 200.93,387.73  "></polygon>
	<path d="M55.05,312.01l-0.34-0.14l0.24-0.27c1.26-1.4,2.47-3,3.58-4.77c3.78-5.93,8.16-14.8,8.16-26.37   c0-16.46-5.51-23.45-11.55-29.42c-6-5.95-15.16-8.97-27.23-8.97H4.22v162.9h23.7c10.3,0,20.94-2.59,28.84-6.22   c8.6-4.73,14.51-8.85,19.89-17.17c4.91-8.56,7.89-15.56,7.89-26.62c0-13.92-3.15-20.98-10.26-29.78   C69.52,319.3,62.43,314.95,55.05,312.01z M21.53,258.62h7.99c6.36,0,10.92,1.4,13.54,4.17c2.7,2.88,6.52,7.77,6.52,17.46   c0,10.18-4.15,17.53-7.65,21.25c-3.39,3.62-7.45,5.37-12.41,5.37h-7.99V258.62z M61.74,373.1c-4.98,7.06-7.11,8.34-13.1,11.55   c-5.98,2.77-12.21,3.75-19.12,3.75h-7.99v-65.16h7.99c12.22,0,22.03,3.06,28.29,9.11c6.21,6,9.2,11.28,9.2,21.96   C67.01,361.99,65.05,367.06,61.74,373.1z"></path>
	<polygon points="1361.87,259.28 1361.87,242.06 1314.19,242.06 1314.19,404.96 1361.87,404.96 1361.87,387.73 1332.23,387.73    1332.23,332.27 1356.23,332.27 1356.23,315.05 1332.23,315.05 1332.23,259.28  "></polygon>
</g>
</svg>
